<svg width="40" height="40" viewBox="0 0 40 40" fill="none" xmlns="http://www.w3.org/2000/svg">
<circle cx="20" cy="20" r="20" fill="white"/>
<g clip-path="url(#clip0_4_197)">
<path d="M26.1269 19.6409C26.1164 17.6809 26.9861 16.2016 28.7463 15.1121C27.7614 13.6756 26.2736 12.8852 24.3091 12.7303C22.4494 12.5808 20.4168 13.8358 19.6729 13.8358C18.8871 13.8358 17.085 12.7837 15.6705 12.7837C12.7473 12.8318 9.64081 15.1602 9.64081 19.8972C9.64081 21.2964 9.89226 22.7419 10.3952 24.2336C11.0657 26.1936 13.486 31 16.011 30.9199C17.3312 30.8878 18.2637 29.964 19.982 29.964C21.6479 29.964 22.5122 30.9199 23.9843 30.9199C26.5303 30.8825 28.7201 26.514 29.3592 24.5487C25.9436 22.9092 26.1269 19.7423 26.1269 19.6409ZM23.1618 10.8718C24.592 9.14152 24.461 7.56609 24.4191 7C23.1566 7.07477 21.695 7.87583 20.862 8.86382C19.9453 9.92123 19.4057 11.2296 19.5209 12.7036C20.8882 12.8104 22.135 12.0948 23.1618 10.8718Z" fill="black"/>
</g>
<defs>
<clipPath id="clip0_4_197">
<rect width="21" height="24" fill="white" transform="translate(9 7)"/>
</clipPath>
</defs>
</svg>
