<svg width="40" height="40" viewBox="0 0 40 40" fill="none" xmlns="http://www.w3.org/2000/svg">
<circle cx="20" cy="20" r="20" fill="white"/>
<g clip-path="url(#clip0_4_198)">
<path d="M24.8225 16.021L12.7547 9.0885C12.6031 9 12.4123 9.00492 12.2655 9.09342C12.1139 9.18192 12.021 9.33925 12.021 9.51625C12.021 9.51625 12.0259 10.1554 12.0307 11.2076L20.8211 20.0428L24.8225 16.021Z" fill="url(#paint0_linear_4_198)"/>
<path d="M12.0308 11.2076C12.0454 15.0032 12.0895 24.217 12.109 28.8042L20.826 20.0428L12.0308 11.2076Z" fill="url(#paint1_linear_4_198)"/>
<path d="M31.7296 19.9887L24.8225 16.0209L20.8162 20.0427L25.3361 24.5857L31.7345 20.8392C31.8861 20.7507 31.979 20.5885 31.979 20.4164C31.979 20.2394 31.8812 20.0772 31.7296 19.9887Z" fill="url(#paint2_linear_4_198)"/>
<path d="M12.1041 28.8042C12.1139 30.4414 12.1188 31.4887 12.1188 31.4887C12.1188 31.6657 12.2117 31.8279 12.3634 31.9115C12.515 32 12.7009 32 12.8526 31.9115L25.341 24.5906L20.8211 20.0477L12.1041 28.8042Z" fill="url(#paint3_linear_4_198)"/>
</g>
<defs>
<linearGradient id="paint0_linear_4_198" x1="12.021" y1="14.5358" x2="24.8248" y2="14.5358" gradientUnits="userSpaceOnUse">
<stop stop-color="#63BE6B"/>
<stop offset="0.506" stop-color="#5BBC6A"/>
<stop offset="1" stop-color="#4AB96A"/>
</linearGradient>
<linearGradient id="paint1_linear_4_198" x1="12.0284" y1="20.008" x2="20.8209" y2="20.008" gradientUnits="userSpaceOnUse">
<stop stop-color="#3EC6F2"/>
<stop offset="1" stop-color="#45AFE3"/>
</linearGradient>
<linearGradient id="paint2_linear_4_198" x1="20.8209" y1="20.3065" x2="31.9779" y2="20.3065" gradientUnits="userSpaceOnUse">
<stop stop-color="#FAA51A"/>
<stop offset="0.387" stop-color="#FAB716"/>
<stop offset="0.741" stop-color="#FAC412"/>
<stop offset="1" stop-color="#FAC80F"/>
</linearGradient>
<linearGradient id="paint3_linear_4_198" x1="12.1063" y1="26.0126" x2="25.3408" y2="26.0126" gradientUnits="userSpaceOnUse">
<stop stop-color="#EC3B50"/>
<stop offset="1" stop-color="#E7515B"/>
</linearGradient>
<clipPath id="clip0_4_198">
<rect width="20" height="23" fill="white" transform="translate(12 9)"/>
</clipPath>
</defs>
</svg>
