<svg width="441" height="170" viewBox="0 0 441 170" fill="none" xmlns="http://www.w3.org/2000/svg">
<line x1="419" y1="118.25" x2="38" y2="118.25" stroke="#C2CAD4" stroke-width="0.5" stroke-dasharray="3 3"/>
<line x1="419" y1="90.25" x2="38" y2="90.25" stroke="#C2CAD4" stroke-width="0.5" stroke-dasharray="3 3"/>
<line x1="419" y1="62.25" x2="38" y2="62.25" stroke="#C2CAD4" stroke-width="0.5" stroke-dasharray="3 3"/>
<line x1="419" y1="34.25" x2="38" y2="34.25" stroke="#C2CAD4" stroke-width="0.5" stroke-dasharray="3 3"/>
<line x1="419" y1="6.25" x2="38" y2="6.25" stroke="#C2CAD4" stroke-width="0.5" stroke-dasharray="3 3"/>
<line x1="441" y1="146.25" x2="42" y2="146.25" stroke="#C2CAD4" stroke-width="0.5"/>
<path d="M62.5152 168V167.412C63.2832 166.644 63.9352 165.972 64.4712 165.396C65.0072 164.812 65.4152 164.288 65.6952 163.824C65.9752 163.352 66.1152 162.912 66.1152 162.504C66.1152 162.064 65.9952 161.704 65.7552 161.424C65.5152 161.144 65.1512 161.004 64.6632 161.004C64.3432 161.004 64.0472 161.096 63.7752 161.28C63.5032 161.456 63.2552 161.672 63.0312 161.928L62.4672 161.364C62.7872 161.012 63.1272 160.732 63.4872 160.524C63.8552 160.308 64.2872 160.2 64.7832 160.2C65.4952 160.2 66.0552 160.408 66.4632 160.824C66.8712 161.232 67.0752 161.776 67.0752 162.456C67.0752 162.936 66.9392 163.424 66.6672 163.92C66.4032 164.408 66.0352 164.924 65.5632 165.468C65.0992 166.004 64.5632 166.588 63.9552 167.22C64.1632 167.204 64.3792 167.188 64.6032 167.172C64.8272 167.156 65.0392 167.148 65.2392 167.148H67.4592V168H62.5152ZM68.48 168V167.412C69.248 166.644 69.9 165.972 70.436 165.396C70.972 164.812 71.38 164.288 71.66 163.824C71.94 163.352 72.08 162.912 72.08 162.504C72.08 162.064 71.96 161.704 71.72 161.424C71.48 161.144 71.116 161.004 70.628 161.004C70.308 161.004 70.012 161.096 69.74 161.28C69.468 161.456 69.22 161.672 68.996 161.928L68.432 161.364C68.752 161.012 69.092 160.732 69.452 160.524C69.82 160.308 70.252 160.2 70.748 160.2C71.46 160.2 72.02 160.408 72.428 160.824C72.836 161.232 73.04 161.776 73.04 162.456C73.04 162.936 72.904 163.424 72.632 163.92C72.368 164.408 72 164.924 71.528 165.468C71.064 166.004 70.528 166.588 69.92 167.22C70.128 167.204 70.344 167.188 70.568 167.172C70.792 167.156 71.004 167.148 71.204 167.148H73.424V168H68.48Z" fill="#00133B" fill-opacity="0.6"/>
<path d="M120.515 168V167.412C121.283 166.644 121.935 165.972 122.471 165.396C123.007 164.812 123.415 164.288 123.695 163.824C123.975 163.352 124.115 162.912 124.115 162.504C124.115 162.064 123.995 161.704 123.755 161.424C123.515 161.144 123.151 161.004 122.663 161.004C122.343 161.004 122.047 161.096 121.775 161.28C121.503 161.456 121.255 161.672 121.031 161.928L120.467 161.364C120.787 161.012 121.127 160.732 121.487 160.524C121.855 160.308 122.287 160.2 122.783 160.2C123.495 160.2 124.055 160.408 124.463 160.824C124.871 161.232 125.075 161.776 125.075 162.456C125.075 162.936 124.939 163.424 124.667 163.92C124.403 164.408 124.035 164.924 123.563 165.468C123.099 166.004 122.563 166.588 121.955 167.22C122.163 167.204 122.379 167.188 122.603 167.172C122.827 167.156 123.039 167.148 123.239 167.148H125.459V168H120.515ZM128.832 168.144C128.224 168.144 127.716 168.036 127.308 167.82C126.9 167.596 126.568 167.344 126.312 167.064L126.816 166.416C127.048 166.656 127.32 166.868 127.632 167.052C127.944 167.236 128.324 167.328 128.772 167.328C129.236 167.328 129.616 167.2 129.912 166.944C130.208 166.688 130.356 166.348 130.356 165.924C130.356 165.62 130.276 165.356 130.116 165.132C129.964 164.9 129.708 164.72 129.348 164.592C128.996 164.464 128.516 164.4 127.908 164.4V163.644C128.452 163.644 128.88 163.58 129.192 163.452C129.512 163.324 129.74 163.152 129.876 162.936C130.012 162.72 130.08 162.48 130.08 162.216C130.08 161.84 129.96 161.544 129.72 161.328C129.488 161.112 129.168 161.004 128.76 161.004C128.44 161.004 128.144 161.076 127.872 161.22C127.608 161.364 127.36 161.552 127.128 161.784L126.6 161.16C126.896 160.88 127.224 160.652 127.584 160.476C127.944 160.292 128.348 160.2 128.796 160.2C129.46 160.2 130.008 160.372 130.44 160.716C130.872 161.052 131.088 161.528 131.088 162.144C131.088 162.608 130.96 162.988 130.704 163.284C130.448 163.58 130.112 163.808 129.696 163.968V164.016C130.16 164.12 130.552 164.34 130.872 164.676C131.192 165.004 131.352 165.432 131.352 165.96C131.352 166.408 131.24 166.796 131.016 167.124C130.792 167.452 130.488 167.704 130.104 167.88C129.728 168.056 129.304 168.144 128.832 168.144Z" fill="#00133B" fill-opacity="0.6"/>
<path d="M178.515 168V167.412C179.283 166.644 179.935 165.972 180.471 165.396C181.007 164.812 181.415 164.288 181.695 163.824C181.975 163.352 182.115 162.912 182.115 162.504C182.115 162.064 181.995 161.704 181.755 161.424C181.515 161.144 181.151 161.004 180.663 161.004C180.343 161.004 180.047 161.096 179.775 161.28C179.503 161.456 179.255 161.672 179.031 161.928L178.467 161.364C178.787 161.012 179.127 160.732 179.487 160.524C179.855 160.308 180.287 160.2 180.783 160.2C181.495 160.2 182.055 160.408 182.463 160.824C182.871 161.232 183.075 161.776 183.075 162.456C183.075 162.936 182.939 163.424 182.667 163.92C182.403 164.408 182.035 164.924 181.563 165.468C181.099 166.004 180.563 166.588 179.955 167.22C180.163 167.204 180.379 167.188 180.603 167.172C180.827 167.156 181.039 167.148 181.239 167.148H183.459V168H178.515ZM185.248 165.096H187.648V162.876C187.648 162.668 187.656 162.42 187.672 162.132C187.688 161.844 187.7 161.6 187.708 161.4H187.66C187.564 161.584 187.464 161.764 187.36 161.94C187.256 162.116 187.148 162.296 187.036 162.48L185.248 165.096ZM187.648 168V165.888H184.204V165.24L187.48 160.344H188.584V165.096H189.628V165.888H188.584V168H187.648Z" fill="#00133B" fill-opacity="0.6"/>
<path d="M236.515 168V167.412C237.283 166.644 237.935 165.972 238.471 165.396C239.007 164.812 239.415 164.288 239.695 163.824C239.975 163.352 240.115 162.912 240.115 162.504C240.115 162.064 239.995 161.704 239.755 161.424C239.515 161.144 239.151 161.004 238.663 161.004C238.343 161.004 238.047 161.096 237.775 161.28C237.503 161.456 237.255 161.672 237.031 161.928L236.467 161.364C236.787 161.012 237.127 160.732 237.487 160.524C237.855 160.308 238.287 160.2 238.783 160.2C239.495 160.2 240.055 160.408 240.463 160.824C240.871 161.232 241.075 161.776 241.075 162.456C241.075 162.936 240.939 163.424 240.667 163.92C240.403 164.408 240.035 164.924 239.563 165.468C239.099 166.004 238.563 166.588 237.955 167.22C238.163 167.204 238.379 167.188 238.603 167.172C238.827 167.156 239.039 167.148 239.239 167.148H241.459V168H236.515ZM244.808 168.144C244.2 168.144 243.696 168.036 243.296 167.82C242.896 167.604 242.564 167.364 242.3 167.1L242.78 166.452C243.012 166.676 243.28 166.88 243.584 167.064C243.888 167.24 244.264 167.328 244.712 167.328C245.184 167.328 245.58 167.172 245.9 166.86C246.228 166.54 246.392 166.112 246.392 165.576C246.392 165.048 246.244 164.636 245.948 164.34C245.652 164.044 245.256 163.896 244.76 163.896C244.496 163.896 244.268 163.936 244.076 164.016C243.892 164.096 243.684 164.212 243.452 164.364L242.924 164.028L243.176 160.344H247.004V161.196H244.04L243.836 163.464C244.02 163.368 244.204 163.292 244.388 163.236C244.572 163.18 244.78 163.152 245.012 163.152C245.452 163.152 245.848 163.24 246.2 163.416C246.56 163.584 246.848 163.844 247.064 164.196C247.28 164.548 247.388 165 247.388 165.552C247.388 166.104 247.264 166.576 247.016 166.968C246.776 167.352 246.46 167.644 246.068 167.844C245.676 168.044 245.256 168.144 244.808 168.144Z" fill="#00133B" fill-opacity="0.6"/>
<path d="M294.515 168V167.412C295.283 166.644 295.935 165.972 296.471 165.396C297.007 164.812 297.415 164.288 297.695 163.824C297.975 163.352 298.115 162.912 298.115 162.504C298.115 162.064 297.995 161.704 297.755 161.424C297.515 161.144 297.151 161.004 296.663 161.004C296.343 161.004 296.047 161.096 295.775 161.28C295.503 161.456 295.255 161.672 295.031 161.928L294.467 161.364C294.787 161.012 295.127 160.732 295.487 160.524C295.855 160.308 296.287 160.2 296.783 160.2C297.495 160.2 298.055 160.408 298.463 160.824C298.871 161.232 299.075 161.776 299.075 162.456C299.075 162.936 298.939 163.424 298.667 163.92C298.403 164.408 298.035 164.924 297.563 165.468C297.099 166.004 296.563 166.588 295.955 167.22C296.163 167.204 296.379 167.188 296.603 167.172C296.827 167.156 297.039 167.148 297.239 167.148H299.459V168H294.515ZM303.132 164.064C302.884 164.064 302.616 164.144 302.328 164.304C302.04 164.464 301.776 164.72 301.536 165.072C301.6 165.816 301.772 166.384 302.052 166.776C302.34 167.168 302.728 167.364 303.216 167.364C303.592 167.364 303.908 167.212 304.164 166.908C304.42 166.596 304.548 166.188 304.548 165.684C304.548 165.188 304.428 164.796 304.188 164.508C303.956 164.212 303.604 164.064 303.132 164.064ZM303.216 168.144C302.72 168.144 302.272 168.008 301.872 167.736C301.472 167.464 301.156 167.056 300.924 166.512C300.692 165.96 300.576 165.276 300.576 164.46C300.576 163.436 300.712 162.612 300.984 161.988C301.264 161.364 301.624 160.912 302.064 160.632C302.512 160.344 302.988 160.2 303.492 160.2C303.908 160.2 304.264 160.28 304.56 160.44C304.864 160.592 305.124 160.784 305.34 161.016L304.788 161.628C304.636 161.444 304.448 161.3 304.224 161.196C304 161.084 303.768 161.028 303.528 161.028C303.168 161.028 302.84 161.132 302.544 161.34C302.248 161.54 302.004 161.88 301.812 162.36C301.628 162.832 301.528 163.472 301.512 164.28C301.752 163.984 302.032 163.752 302.352 163.584C302.672 163.408 302.988 163.32 303.3 163.32C303.964 163.32 304.492 163.52 304.884 163.92C305.284 164.312 305.484 164.9 305.484 165.684C305.484 166.172 305.38 166.6 305.172 166.968C304.964 167.336 304.688 167.624 304.344 167.832C304.008 168.04 303.632 168.144 303.216 168.144Z" fill="#00133B" fill-opacity="0.6"/>
<path d="M352.515 168V167.412C353.283 166.644 353.935 165.972 354.471 165.396C355.007 164.812 355.415 164.288 355.695 163.824C355.975 163.352 356.115 162.912 356.115 162.504C356.115 162.064 355.995 161.704 355.755 161.424C355.515 161.144 355.151 161.004 354.663 161.004C354.343 161.004 354.047 161.096 353.775 161.28C353.503 161.456 353.255 161.672 353.031 161.928L352.467 161.364C352.787 161.012 353.127 160.732 353.487 160.524C353.855 160.308 354.287 160.2 354.783 160.2C355.495 160.2 356.055 160.408 356.463 160.824C356.871 161.232 357.075 161.776 357.075 162.456C357.075 162.936 356.939 163.424 356.667 163.92C356.403 164.408 356.035 164.924 355.563 165.468C355.099 166.004 354.563 166.588 353.955 167.22C354.163 167.204 354.379 167.188 354.603 167.172C354.827 167.156 355.039 167.148 355.239 167.148H357.459V168H352.515ZM360.124 168C360.172 167.04 360.272 166.18 360.424 165.42C360.584 164.652 360.816 163.932 361.12 163.26C361.432 162.58 361.84 161.892 362.344 161.196H358.528V160.344H363.46V160.956C363.004 161.532 362.632 162.088 362.344 162.624C362.056 163.152 361.832 163.688 361.672 164.232C361.512 164.768 361.392 165.344 361.312 165.96C361.232 166.576 361.176 167.256 361.144 168H360.124Z" fill="#00133B" fill-opacity="0.6"/>
<path d="M410.515 168V167.412C411.283 166.644 411.935 165.972 412.471 165.396C413.007 164.812 413.415 164.288 413.695 163.824C413.975 163.352 414.115 162.912 414.115 162.504C414.115 162.064 413.995 161.704 413.755 161.424C413.515 161.144 413.151 161.004 412.663 161.004C412.343 161.004 412.047 161.096 411.775 161.28C411.503 161.456 411.255 161.672 411.031 161.928L410.467 161.364C410.787 161.012 411.127 160.732 411.487 160.524C411.855 160.308 412.287 160.2 412.783 160.2C413.495 160.2 414.055 160.408 414.463 160.824C414.871 161.232 415.075 161.776 415.075 162.456C415.075 162.936 414.939 163.424 414.667 163.92C414.403 164.408 414.035 164.924 413.563 165.468C413.099 166.004 412.563 166.588 411.955 167.22C412.163 167.204 412.379 167.188 412.603 167.172C412.827 167.156 413.039 167.148 413.239 167.148H415.459V168H410.515ZM419 168.144C418.52 168.144 418.092 168.056 417.716 167.88C417.34 167.696 417.04 167.444 416.816 167.124C416.6 166.804 416.492 166.444 416.492 166.044C416.492 165.708 416.56 165.412 416.696 165.156C416.84 164.892 417.02 164.664 417.236 164.472C417.46 164.272 417.692 164.108 417.932 163.98V163.932C417.652 163.732 417.404 163.488 417.188 163.2C416.972 162.912 416.864 162.568 416.864 162.168C416.864 161.776 416.96 161.432 417.152 161.136C417.344 160.84 417.604 160.612 417.932 160.452C418.26 160.284 418.628 160.2 419.036 160.2C419.7 160.2 420.224 160.392 420.608 160.776C421 161.16 421.196 161.648 421.196 162.24C421.196 162.504 421.14 162.756 421.028 162.996C420.916 163.228 420.78 163.44 420.62 163.632C420.46 163.816 420.3 163.968 420.14 164.088V164.136C420.372 164.264 420.588 164.416 420.788 164.592C420.988 164.768 421.152 164.98 421.28 165.228C421.408 165.468 421.472 165.76 421.472 166.104C421.472 166.48 421.368 166.824 421.16 167.136C420.96 167.448 420.672 167.696 420.296 167.88C419.928 168.056 419.496 168.144 419 168.144ZM419.54 163.824C419.796 163.592 419.992 163.348 420.128 163.092C420.272 162.836 420.344 162.568 420.344 162.288C420.344 161.912 420.228 161.592 419.996 161.328C419.764 161.064 419.436 160.932 419.012 160.932C418.66 160.932 418.364 161.044 418.124 161.268C417.892 161.492 417.776 161.792 417.776 162.168C417.776 162.472 417.856 162.724 418.016 162.924C418.184 163.124 418.404 163.296 418.676 163.44C418.948 163.576 419.236 163.704 419.54 163.824ZM419.024 167.412C419.472 167.412 419.832 167.288 420.104 167.04C420.384 166.784 420.524 166.46 420.524 166.068C420.524 165.74 420.428 165.472 420.236 165.264C420.044 165.056 419.788 164.876 419.468 164.724C419.156 164.572 418.816 164.424 418.448 164.28C418.144 164.48 417.888 164.72 417.68 165C417.48 165.28 417.38 165.596 417.38 165.948C417.38 166.372 417.536 166.724 417.848 167.004C418.168 167.276 418.56 167.412 419.024 167.412Z" fill="#00133B" fill-opacity="0.6"/>
<path d="M1.08 10V2.128H3.54C4.076 2.128 4.552 2.2 4.968 2.344C5.384 2.48 5.708 2.712 5.94 3.04C6.18 3.36 6.3 3.792 6.3 4.336C6.3 4.944 6.14 5.436 5.82 5.812C5.5 6.18 5.068 6.432 4.524 6.568L6.528 10H5.4L3.504 6.676H2.076V10H1.08ZM2.076 5.86H3.396C4.012 5.86 4.484 5.736 4.812 5.488C5.14 5.232 5.304 4.848 5.304 4.336C5.304 3.816 5.14 3.452 4.812 3.244C4.484 3.036 4.012 2.932 3.396 2.932H2.076V5.86ZM9.49603 11.32V10.132C9.11203 10.092 8.74003 9.988 8.38003 9.82C8.02003 9.644 7.71203 9.44 7.45603 9.208L7.91203 8.524C8.16803 8.748 8.44803 8.94 8.75203 9.1C9.06403 9.252 9.40403 9.328 9.77203 9.328C10.22 9.328 10.552 9.216 10.768 8.992C10.992 8.76 11.104 8.46 11.104 8.092C11.104 7.764 11.024 7.496 10.864 7.288C10.704 7.08 10.496 6.9 10.24 6.748C9.98403 6.596 9.71203 6.452 9.42403 6.316C9.14403 6.172 8.87603 6.016 8.62003 5.848C8.36403 5.672 8.15603 5.456 7.99603 5.2C7.83603 4.944 7.75603 4.62 7.75603 4.228C7.75603 3.692 7.91603 3.248 8.23603 2.896C8.55603 2.536 8.97603 2.316 9.49603 2.236V1.024H10.216V2.212C10.6 2.252 10.924 2.356 11.188 2.524C11.46 2.692 11.704 2.892 11.92 3.124L11.392 3.712C11.168 3.496 10.948 3.328 10.732 3.208C10.524 3.088 10.256 3.028 9.92803 3.028C9.56003 3.028 9.26803 3.132 9.05203 3.34C8.83603 3.548 8.72803 3.828 8.72803 4.18C8.72803 4.468 8.80803 4.708 8.96803 4.9C9.12803 5.084 9.33603 5.244 9.59203 5.38C9.84803 5.516 10.116 5.652 10.396 5.788C10.684 5.924 10.956 6.084 11.212 6.268C11.468 6.444 11.676 6.672 11.836 6.952C11.996 7.232 12.076 7.588 12.076 8.02C12.076 8.588 11.908 9.06 11.572 9.436C11.236 9.804 10.784 10.028 10.216 10.108V11.32H9.49603ZM18.0072 10.144C17.3992 10.144 16.8952 10.036 16.4952 9.82C16.0952 9.604 15.7632 9.364 15.4992 9.1L15.9792 8.452C16.2112 8.676 16.4792 8.88 16.7832 9.064C17.0872 9.24 17.4632 9.328 17.9112 9.328C18.3832 9.328 18.7792 9.172 19.0992 8.86C19.4272 8.54 19.5912 8.112 19.5912 7.576C19.5912 7.048 19.4432 6.636 19.1472 6.34C18.8512 6.044 18.4552 5.896 17.9592 5.896C17.6952 5.896 17.4672 5.936 17.2752 6.016C17.0912 6.096 16.8832 6.212 16.6512 6.364L16.1232 6.028L16.3752 2.344H20.2032V3.196H17.2392L17.0352 5.464C17.2192 5.368 17.4032 5.292 17.5872 5.236C17.7712 5.18 17.9792 5.152 18.2112 5.152C18.6512 5.152 19.0472 5.24 19.3992 5.416C19.7592 5.584 20.0472 5.844 20.2632 6.196C20.4792 6.548 20.5872 7 20.5872 7.552C20.5872 8.104 20.4632 8.576 20.2152 8.968C19.9752 9.352 19.6592 9.644 19.2672 9.844C18.8752 10.044 18.4552 10.144 18.0072 10.144ZM22.2441 10V2.128H23.4441L24.9561 6.328C25.0521 6.6 25.1441 6.876 25.2321 7.156C25.3281 7.428 25.4241 7.7 25.5201 7.972H25.5681C25.6641 7.7 25.7521 7.428 25.8321 7.156C25.9201 6.876 26.0121 6.6 26.1081 6.328L27.5961 2.128H28.8081V10H27.8721V5.668C27.8721 5.316 27.8881 4.928 27.9201 4.504C27.9521 4.072 27.9801 3.684 28.0041 3.34H27.9561L27.3321 5.128L25.8441 9.208H25.1841L23.6961 5.128L23.0721 3.34H23.0241C23.0481 3.684 23.0721 4.072 23.0961 4.504C23.1281 4.928 23.1441 5.316 23.1441 5.668V10H22.2441Z" fill="#00133B" fill-opacity="0.6"/>
<path d="M1.08 38V30.128H3.54C4.076 30.128 4.552 30.2 4.968 30.344C5.384 30.48 5.708 30.712 5.94 31.04C6.18 31.36 6.3 31.792 6.3 32.336C6.3 32.944 6.14 33.436 5.82 33.812C5.5 34.18 5.068 34.432 4.524 34.568L6.528 38H5.4L3.504 34.676H2.076V38H1.08ZM2.076 33.86H3.396C4.012 33.86 4.484 33.736 4.812 33.488C5.14 33.232 5.304 32.848 5.304 32.336C5.304 31.816 5.14 31.452 4.812 31.244C4.484 31.036 4.012 30.932 3.396 30.932H2.076V33.86ZM9.49603 39.32V38.132C9.11203 38.092 8.74003 37.988 8.38003 37.82C8.02003 37.644 7.71203 37.44 7.45603 37.208L7.91203 36.524C8.16803 36.748 8.44803 36.94 8.75203 37.1C9.06403 37.252 9.40403 37.328 9.77203 37.328C10.22 37.328 10.552 37.216 10.768 36.992C10.992 36.76 11.104 36.46 11.104 36.092C11.104 35.764 11.024 35.496 10.864 35.288C10.704 35.08 10.496 34.9 10.24 34.748C9.98403 34.596 9.71203 34.452 9.42403 34.316C9.14403 34.172 8.87603 34.016 8.62003 33.848C8.36403 33.672 8.15603 33.456 7.99603 33.2C7.83603 32.944 7.75603 32.62 7.75603 32.228C7.75603 31.692 7.91603 31.248 8.23603 30.896C8.55603 30.536 8.97603 30.316 9.49603 30.236V29.024H10.216V30.212C10.6 30.252 10.924 30.356 11.188 30.524C11.46 30.692 11.704 30.892 11.92 31.124L11.392 31.712C11.168 31.496 10.948 31.328 10.732 31.208C10.524 31.088 10.256 31.028 9.92803 31.028C9.56003 31.028 9.26803 31.132 9.05203 31.34C8.83603 31.548 8.72803 31.828 8.72803 32.18C8.72803 32.468 8.80803 32.708 8.96803 32.9C9.12803 33.084 9.33603 33.244 9.59203 33.38C9.84803 33.516 10.116 33.652 10.396 33.788C10.684 33.924 10.956 34.084 11.212 34.268C11.468 34.444 11.676 34.672 11.836 34.952C11.996 35.232 12.076 35.588 12.076 36.02C12.076 36.588 11.908 37.06 11.572 37.436C11.236 37.804 10.784 38.028 10.216 38.108V39.32H9.49603ZM16.4472 35.096H18.8472V32.876C18.8472 32.668 18.8552 32.42 18.8712 32.132C18.8872 31.844 18.8992 31.6 18.9072 31.4H18.8592C18.7632 31.584 18.6632 31.764 18.5592 31.94C18.4552 32.116 18.3472 32.296 18.2352 32.48L16.4472 35.096ZM18.8472 38V35.888H15.4032V35.24L18.6792 30.344H19.7832V35.096H20.8272V35.888H19.7832V38H18.8472ZM22.2441 38V30.128H23.4441L24.9561 34.328C25.0521 34.6 25.1441 34.876 25.2321 35.156C25.3281 35.428 25.4241 35.7 25.5201 35.972H25.5681C25.6641 35.7 25.7521 35.428 25.8321 35.156C25.9201 34.876 26.0121 34.6 26.1081 34.328L27.5961 30.128H28.8081V38H27.8721V33.668C27.8721 33.316 27.8881 32.928 27.9201 32.504C27.9521 32.072 27.9801 31.684 28.0041 31.34H27.9561L27.3321 33.128L25.8441 37.208H25.1841L23.6961 33.128L23.0721 31.34H23.0241C23.0481 31.684 23.0721 32.072 23.0961 32.504C23.1281 32.928 23.1441 33.316 23.1441 33.668V38H22.2441Z" fill="#00133B" fill-opacity="0.6"/>
<path d="M1.08 66V58.128H3.54C4.076 58.128 4.552 58.2 4.968 58.344C5.384 58.48 5.708 58.712 5.94 59.04C6.18 59.36 6.3 59.792 6.3 60.336C6.3 60.944 6.14 61.436 5.82 61.812C5.5 62.18 5.068 62.432 4.524 62.568L6.528 66H5.4L3.504 62.676H2.076V66H1.08ZM2.076 61.86H3.396C4.012 61.86 4.484 61.736 4.812 61.488C5.14 61.232 5.304 60.848 5.304 60.336C5.304 59.816 5.14 59.452 4.812 59.244C4.484 59.036 4.012 58.932 3.396 58.932H2.076V61.86ZM9.49603 67.32V66.132C9.11203 66.092 8.74003 65.988 8.38003 65.82C8.02003 65.644 7.71203 65.44 7.45603 65.208L7.91203 64.524C8.16803 64.748 8.44803 64.94 8.75203 65.1C9.06403 65.252 9.40403 65.328 9.77203 65.328C10.22 65.328 10.552 65.216 10.768 64.992C10.992 64.76 11.104 64.46 11.104 64.092C11.104 63.764 11.024 63.496 10.864 63.288C10.704 63.08 10.496 62.9 10.24 62.748C9.98403 62.596 9.71203 62.452 9.42403 62.316C9.14403 62.172 8.87603 62.016 8.62003 61.848C8.36403 61.672 8.15603 61.456 7.99603 61.2C7.83603 60.944 7.75603 60.62 7.75603 60.228C7.75603 59.692 7.91603 59.248 8.23603 58.896C8.55603 58.536 8.97603 58.316 9.49603 58.236V57.024H10.216V58.212C10.6 58.252 10.924 58.356 11.188 58.524C11.46 58.692 11.704 58.892 11.92 59.124L11.392 59.712C11.168 59.496 10.948 59.328 10.732 59.208C10.524 59.088 10.256 59.028 9.92803 59.028C9.56003 59.028 9.26803 59.132 9.05203 59.34C8.83603 59.548 8.72803 59.828 8.72803 60.18C8.72803 60.468 8.80803 60.708 8.96803 60.9C9.12803 61.084 9.33603 61.244 9.59203 61.38C9.84803 61.516 10.116 61.652 10.396 61.788C10.684 61.924 10.956 62.084 11.212 62.268C11.468 62.444 11.676 62.672 11.836 62.952C11.996 63.232 12.076 63.588 12.076 64.02C12.076 64.588 11.908 65.06 11.572 65.436C11.236 65.804 10.784 66.028 10.216 66.108V67.32H9.49603ZM18.0312 66.144C17.4232 66.144 16.9152 66.036 16.5072 65.82C16.0992 65.596 15.7672 65.344 15.5112 65.064L16.0152 64.416C16.2472 64.656 16.5192 64.868 16.8312 65.052C17.1432 65.236 17.5232 65.328 17.9712 65.328C18.4352 65.328 18.8152 65.2 19.1112 64.944C19.4072 64.688 19.5552 64.348 19.5552 63.924C19.5552 63.62 19.4752 63.356 19.3152 63.132C19.1632 62.9 18.9072 62.72 18.5472 62.592C18.1952 62.464 17.7152 62.4 17.1072 62.4V61.644C17.6512 61.644 18.0792 61.58 18.3912 61.452C18.7112 61.324 18.9392 61.152 19.0752 60.936C19.2112 60.72 19.2792 60.48 19.2792 60.216C19.2792 59.84 19.1592 59.544 18.9192 59.328C18.6872 59.112 18.3672 59.004 17.9592 59.004C17.6392 59.004 17.3432 59.076 17.0712 59.22C16.8072 59.364 16.5592 59.552 16.3272 59.784L15.7992 59.16C16.0952 58.88 16.4232 58.652 16.7832 58.476C17.1432 58.292 17.5472 58.2 17.9952 58.2C18.6592 58.2 19.2072 58.372 19.6392 58.716C20.0712 59.052 20.2872 59.528 20.2872 60.144C20.2872 60.608 20.1592 60.988 19.9032 61.284C19.6472 61.58 19.3112 61.808 18.8952 61.968V62.016C19.3592 62.12 19.7512 62.34 20.0712 62.676C20.3912 63.004 20.5512 63.432 20.5512 63.96C20.5512 64.408 20.4392 64.796 20.2152 65.124C19.9912 65.452 19.6872 65.704 19.3032 65.88C18.9272 66.056 18.5032 66.144 18.0312 66.144ZM22.2441 66V58.128H23.4441L24.9561 62.328C25.0521 62.6 25.1441 62.876 25.2321 63.156C25.3281 63.428 25.4241 63.7 25.5201 63.972H25.5681C25.6641 63.7 25.7521 63.428 25.8321 63.156C25.9201 62.876 26.0121 62.6 26.1081 62.328L27.5961 58.128H28.8081V66H27.8721V61.668C27.8721 61.316 27.8881 60.928 27.9201 60.504C27.9521 60.072 27.9801 59.684 28.0041 59.34H27.9561L27.3321 61.128L25.8441 65.208H25.1841L23.6961 61.128L23.0721 59.34H23.0241C23.0481 59.684 23.0721 60.072 23.0961 60.504C23.1281 60.928 23.1441 61.316 23.1441 61.668V66H22.2441Z" fill="#00133B" fill-opacity="0.6"/>
<path d="M1.08 94V86.128H3.54C4.076 86.128 4.552 86.2 4.968 86.344C5.384 86.48 5.708 86.712 5.94 87.04C6.18 87.36 6.3 87.792 6.3 88.336C6.3 88.944 6.14 89.436 5.82 89.812C5.5 90.18 5.068 90.432 4.524 90.568L6.528 94H5.4L3.504 90.676H2.076V94H1.08ZM2.076 89.86H3.396C4.012 89.86 4.484 89.736 4.812 89.488C5.14 89.232 5.304 88.848 5.304 88.336C5.304 87.816 5.14 87.452 4.812 87.244C4.484 87.036 4.012 86.932 3.396 86.932H2.076V89.86ZM9.49603 95.32V94.132C9.11203 94.092 8.74003 93.988 8.38003 93.82C8.02003 93.644 7.71203 93.44 7.45603 93.208L7.91203 92.524C8.16803 92.748 8.44803 92.94 8.75203 93.1C9.06403 93.252 9.40403 93.328 9.77203 93.328C10.22 93.328 10.552 93.216 10.768 92.992C10.992 92.76 11.104 92.46 11.104 92.092C11.104 91.764 11.024 91.496 10.864 91.288C10.704 91.08 10.496 90.9 10.24 90.748C9.98403 90.596 9.71203 90.452 9.42403 90.316C9.14403 90.172 8.87603 90.016 8.62003 89.848C8.36403 89.672 8.15603 89.456 7.99603 89.2C7.83603 88.944 7.75603 88.62 7.75603 88.228C7.75603 87.692 7.91603 87.248 8.23603 86.896C8.55603 86.536 8.97603 86.316 9.49603 86.236V85.024H10.216V86.212C10.6 86.252 10.924 86.356 11.188 86.524C11.46 86.692 11.704 86.892 11.92 87.124L11.392 87.712C11.168 87.496 10.948 87.328 10.732 87.208C10.524 87.088 10.256 87.028 9.92803 87.028C9.56003 87.028 9.26803 87.132 9.05203 87.34C8.83603 87.548 8.72803 87.828 8.72803 88.18C8.72803 88.468 8.80803 88.708 8.96803 88.9C9.12803 89.084 9.33603 89.244 9.59203 89.38C9.84803 89.516 10.116 89.652 10.396 89.788C10.684 89.924 10.956 90.084 11.212 90.268C11.468 90.444 11.676 90.672 11.836 90.952C11.996 91.232 12.076 91.588 12.076 92.02C12.076 92.588 11.908 93.06 11.572 93.436C11.236 93.804 10.784 94.028 10.216 94.108V95.32H9.49603ZM15.6792 94V93.412C16.4472 92.644 17.0992 91.972 17.6352 91.396C18.1712 90.812 18.5792 90.288 18.8592 89.824C19.1392 89.352 19.2792 88.912 19.2792 88.504C19.2792 88.064 19.1592 87.704 18.9192 87.424C18.6792 87.144 18.3152 87.004 17.8272 87.004C17.5072 87.004 17.2112 87.096 16.9392 87.28C16.6672 87.456 16.4192 87.672 16.1952 87.928L15.6312 87.364C15.9512 87.012 16.2912 86.732 16.6512 86.524C17.0192 86.308 17.4512 86.2 17.9472 86.2C18.6592 86.2 19.2192 86.408 19.6272 86.824C20.0352 87.232 20.2392 87.776 20.2392 88.456C20.2392 88.936 20.1032 89.424 19.8312 89.92C19.5672 90.408 19.1992 90.924 18.7272 91.468C18.2632 92.004 17.7272 92.588 17.1192 93.22C17.3272 93.204 17.5432 93.188 17.7672 93.172C17.9912 93.156 18.2032 93.148 18.4032 93.148H20.6232V94H15.6792ZM22.2441 94V86.128H23.4441L24.9561 90.328C25.0521 90.6 25.1441 90.876 25.2321 91.156C25.3281 91.428 25.4241 91.7 25.5201 91.972H25.5681C25.6641 91.7 25.7521 91.428 25.8321 91.156C25.9201 90.876 26.0121 90.6 26.1081 90.328L27.5961 86.128H28.8081V94H27.8721V89.668C27.8721 89.316 27.8881 88.928 27.9201 88.504C27.9521 88.072 27.9801 87.684 28.0041 87.34H27.9561L27.3321 89.128L25.8441 93.208H25.1841L23.6961 89.128L23.0721 87.34H23.0241C23.0481 87.684 23.0721 88.072 23.0961 88.504C23.1281 88.928 23.1441 89.316 23.1441 89.668V94H22.2441Z" fill="#00133B" fill-opacity="0.6"/>
<path d="M1.08 122V114.128H3.54C4.076 114.128 4.552 114.2 4.968 114.344C5.384 114.48 5.708 114.712 5.94 115.04C6.18 115.36 6.3 115.792 6.3 116.336C6.3 116.944 6.14 117.436 5.82 117.812C5.5 118.18 5.068 118.432 4.524 118.568L6.528 122H5.4L3.504 118.676H2.076V122H1.08ZM2.076 117.86H3.396C4.012 117.86 4.484 117.736 4.812 117.488C5.14 117.232 5.304 116.848 5.304 116.336C5.304 115.816 5.14 115.452 4.812 115.244C4.484 115.036 4.012 114.932 3.396 114.932H2.076V117.86ZM9.49603 123.32V122.132C9.11203 122.092 8.74003 121.988 8.38003 121.82C8.02003 121.644 7.71203 121.44 7.45603 121.208L7.91203 120.524C8.16803 120.748 8.44803 120.94 8.75203 121.1C9.06403 121.252 9.40403 121.328 9.77203 121.328C10.22 121.328 10.552 121.216 10.768 120.992C10.992 120.76 11.104 120.46 11.104 120.092C11.104 119.764 11.024 119.496 10.864 119.288C10.704 119.08 10.496 118.9 10.24 118.748C9.98403 118.596 9.71203 118.452 9.42403 118.316C9.14403 118.172 8.87603 118.016 8.62003 117.848C8.36403 117.672 8.15603 117.456 7.99603 117.2C7.83603 116.944 7.75603 116.62 7.75603 116.228C7.75603 115.692 7.91603 115.248 8.23603 114.896C8.55603 114.536 8.97603 114.316 9.49603 114.236V113.024H10.216V114.212C10.6 114.252 10.924 114.356 11.188 114.524C11.46 114.692 11.704 114.892 11.92 115.124L11.392 115.712C11.168 115.496 10.948 115.328 10.732 115.208C10.524 115.088 10.256 115.028 9.92803 115.028C9.56003 115.028 9.26803 115.132 9.05203 115.34C8.83603 115.548 8.72803 115.828 8.72803 116.18C8.72803 116.468 8.80803 116.708 8.96803 116.9C9.12803 117.084 9.33603 117.244 9.59203 117.38C9.84803 117.516 10.116 117.652 10.396 117.788C10.684 117.924 10.956 118.084 11.212 118.268C11.468 118.444 11.676 118.672 11.836 118.952C11.996 119.232 12.076 119.588 12.076 120.02C12.076 120.588 11.908 121.06 11.572 121.436C11.236 121.804 10.784 122.028 10.216 122.108V123.32H9.49603ZM16.1472 122V121.184H17.8992V115.544H16.5072V114.908C16.8592 114.844 17.1632 114.768 17.4192 114.68C17.6832 114.584 17.9192 114.472 18.1272 114.344H18.8832V121.184H20.4672V122H16.1472ZM22.2441 122V114.128H23.4441L24.9561 118.328C25.0521 118.6 25.1441 118.876 25.2321 119.156C25.3281 119.428 25.4241 119.7 25.5201 119.972H25.5681C25.6641 119.7 25.7521 119.428 25.8321 119.156C25.9201 118.876 26.0121 118.6 26.1081 118.328L27.5961 114.128H28.8081V122H27.8721V117.668C27.8721 117.316 27.8881 116.928 27.9201 116.504C27.9521 116.072 27.9801 115.684 28.0041 115.34H27.9561L27.3321 117.128L25.8441 121.208H25.1841L23.6961 117.128L23.0721 115.34H23.0241C23.0481 115.684 23.0721 116.072 23.0961 116.504C23.1281 116.928 23.1441 117.316 23.1441 117.668V122H22.2441Z" fill="#00133B" fill-opacity="0.6"/>
<path d="M26.988 150.144C26.22 150.144 25.616 149.8 25.176 149.112C24.744 148.416 24.528 147.428 24.528 146.148C24.528 144.86 24.744 143.88 25.176 143.208C25.616 142.536 26.22 142.2 26.988 142.2C27.748 142.2 28.344 142.536 28.776 143.208C29.216 143.88 29.436 144.86 29.436 146.148C29.436 147.428 29.216 148.416 28.776 149.112C28.344 149.8 27.748 150.144 26.988 150.144ZM26.988 149.352C27.436 149.352 27.796 149.1 28.068 148.596C28.34 148.084 28.476 147.268 28.476 146.148C28.476 145.028 28.34 144.224 28.068 143.736C27.796 143.24 27.436 142.992 26.988 142.992C26.54 142.992 26.176 143.24 25.896 143.736C25.624 144.224 25.488 145.028 25.488 146.148C25.488 147.268 25.624 148.084 25.896 148.596C26.176 149.1 26.54 149.352 26.988 149.352Z" fill="#00133B" fill-opacity="0.6"/>
<path d="M56 111C56 107.686 58.6863 105 62 105H75C78.3137 105 81 107.686 81 111V146H56V111Z" fill="#6FB307"/>
<path d="M114 94C114 90.6863 116.686 88 120 88H133C136.314 88 139 90.6863 139 94V146H114V94Z" fill="#6FB307"/>
<path d="M172 84C172 80.6863 174.686 78 178 78H191C194.314 78 197 80.6863 197 84V146H172V84Z" fill="#6FB307"/>
<path d="M230 52C230 48.6863 232.686 46 236 46H249C252.314 46 255 48.6863 255 52V146H230V52Z" fill="#6FB307"/>
<path d="M288 37C288 33.6863 290.686 31 294 31H307C310.314 31 313 33.6863 313 37V146H288V37Z" fill="#6FB307"/>
<path d="M346 31C346 27.6863 348.686 25 352 25H365C368.314 25 371 27.6863 371 31V146H346V31Z" fill="#6FB307"/>
<path d="M403 6C403 2.68629 405.686 0 409 0H422C425.314 0 428 2.68629 428 6V146H403V6Z" fill="#6FB307"/>
</svg>
