<svg width="20" height="19" viewBox="0 0 20 19" fill="none" xmlns="http://www.w3.org/2000/svg">
<path d="M2.5 2V15.125C2.5 15.4766 2.77344 15.75 3.125 15.75H18.75C19.4141 15.75 20 16.3359 20 17C20 17.7031 19.4141 18.25 18.75 18.25H3.125C1.36719 18.25 0 16.8828 0 15.125V2C0 1.33594 0.546875 0.75 1.25 0.75C1.91406 0.75 2.5 1.33594 2.5 2ZM17.1484 10.3984L15.8594 9.14844L12.7344 12.2734C12.2656 12.7812 11.4453 12.7812 10.9766 12.2734L8.125 9.42188L5.85938 11.6484C5.39062 12.1562 4.57031 12.1562 4.10156 11.6484C3.59375 11.1797 3.59375 10.3594 4.10156 9.89062L7.22656 6.76562C7.69531 6.25781 8.51562 6.25781 8.98438 6.76562L11.875 9.61719L14.1016 7.39062L12.8125 6.10156C12.2266 5.51562 12.6562 4.5 13.4766 4.5H17.8125C18.3203 4.5 18.75 4.92969 18.75 5.4375V9.73438C18.75 10.5938 17.7344 11.0234 17.1484 10.3984Z" fill="#009C8A"/>
</svg>
