<svg width="20" height="21" viewBox="0 0 20 21" fill="none" xmlns="http://www.w3.org/2000/svg">
<path d="M18.3594 0.890625C18.4766 1.00781 18.5938 1.125 18.6328 1.28125C18.7109 1.4375 18.75 1.59375 18.75 1.75V5.5C18.75 6.20312 18.1641 6.75 17.5 6.75C16.7969 6.75 16.25 6.20312 16.25 5.5V4.79688L12.1094 8.89844C11.6406 9.36719 10.8984 9.40625 10.4297 8.97656L6.875 5.92969L3.28125 8.97656C2.77344 9.40625 1.99219 9.36719 1.52344 8.82031C1.09375 8.3125 1.13281 7.53125 1.67969 7.0625L6.05469 3.3125C6.52344 2.92188 7.1875 2.92188 7.65625 3.3125L11.1719 6.32031L14.4531 3H13.75C13.0469 3 12.5 2.45312 12.5 1.75C12.5 1.08594 13.0469 0.5 13.75 0.5H17.5C17.8125 0.5 18.125 0.65625 18.3594 0.890625ZM0 12.375C0 11.3594 0.820312 10.5 1.875 10.5H18.125C19.1406 10.5 20 11.3594 20 12.375V18.625C20 19.6797 19.1406 20.5 18.125 20.5H1.875C0.820312 20.5 0 19.6797 0 18.625V12.375ZM1.875 16.75V18.625H3.75C3.75 17.6094 2.89062 16.75 1.875 16.75ZM3.75 12.375H1.875V14.25C2.89062 14.25 3.75 13.4297 3.75 12.375ZM18.125 16.75C17.0703 16.75 16.25 17.6094 16.25 18.625H18.125V16.75ZM16.25 12.375C16.25 13.4297 17.0703 14.25 18.125 14.25V12.375H16.25ZM12.5 15.5C12.5 14.1328 11.3672 13 10 13C8.59375 13 7.5 14.1328 7.5 15.5C7.5 16.9062 8.59375 18 10 18C11.3672 18 12.5 16.9062 12.5 15.5Z" fill="#6FB307"/>
</svg>
