<svg width="25" height="21" viewBox="0 0 25 21" fill="none" xmlns="http://www.w3.org/2000/svg">
<path d="M13.75 5.5C13.75 8.27344 11.4844 10.5 8.75 10.5C5.97656 10.5 3.75 8.27344 3.75 5.5C3.75 2.76562 5.97656 0.5 8.75 0.5C11.4844 0.5 13.75 2.76562 13.75 5.5ZM0 19.3672C0 15.5 3.08594 12.375 6.95312 12.375H10.5078C14.375 12.375 17.5 15.5 17.5 19.3672C17.5 19.9922 16.9531 20.5 16.3281 20.5H1.13281C0.507812 20.5 0 19.9922 0 19.3672ZM19.6875 12.6875V10.1875H17.1875C16.6406 10.1875 16.25 9.79688 16.25 9.25C16.25 8.74219 16.6406 8.3125 17.1875 8.3125H19.6875V5.8125C19.6875 5.30469 20.0781 4.875 20.625 4.875C21.1328 4.875 21.5625 5.30469 21.5625 5.8125V8.3125H24.0625C24.5703 8.3125 25 8.74219 25 9.25C25 9.79688 24.5703 10.1875 24.0625 10.1875H21.5625V12.6875C21.5625 13.2344 21.1328 13.625 20.625 13.625C20.0781 13.625 19.6875 13.2344 19.6875 12.6875Z" fill="#5B24FF"/>
</svg>
