<svg width="25" height="21" viewBox="0 0 25 21" fill="none" xmlns="http://www.w3.org/2000/svg">
<path d="M5.625 6.75C3.86719 6.75 2.5 5.38281 2.5 3.625C2.5 1.90625 3.86719 0.5 5.625 0.5C7.34375 0.5 8.75 1.90625 8.75 3.625C8.75 5.38281 7.34375 6.75 5.625 6.75ZM20 6.75C18.2422 6.75 16.875 5.38281 16.875 3.625C16.875 1.90625 18.2422 0.5 20 0.5C21.7188 0.5 23.125 1.90625 23.125 3.625C23.125 5.38281 21.7188 6.75 20 6.75ZM0 12.1797C0 9.875 1.83594 8 4.14062 8H5.82031C6.44531 8 7.03125 8.15625 7.57812 8.39062C7.5 8.66406 7.5 8.97656 7.5 9.25C7.5 10.7734 8.125 12.1016 9.17969 13C9.17969 13 9.17969 13 9.14062 13H0.820312C0.351562 13 0 12.6484 0 12.1797ZM15.8203 13H15.7812C16.8359 12.1016 17.4609 10.7734 17.4609 9.25C17.4609 8.97656 17.4609 8.66406 17.4219 8.39062C17.9297 8.15625 18.5156 8 19.1406 8H20.8203C23.125 8 25 9.875 25 12.1797C25 12.6484 24.6094 13 24.1406 13H15.8203ZM16.25 9.25C16.25 11.3203 14.5703 13 12.5 13C10.4297 13 8.75 11.3203 8.75 9.25C8.75 7.17969 10.4297 5.5 12.5 5.5C14.5703 5.5 16.25 7.17969 16.25 9.25ZM5 19.4844C5 16.5938 7.30469 14.25 10.1953 14.25H14.7656C17.6562 14.25 20 16.5938 20 19.4844C20 20.0312 19.5312 20.5 18.9453 20.5H6.01562C5.46875 20.5 5 20.0703 5 19.4844Z" fill="#1759FF"/>
</svg>
