<svg width="85" height="40" viewBox="0 0 85 40" fill="none" xmlns="http://www.w3.org/2000/svg">
<g clip-path="url(#clip0_2_39)">
<path d="M16.7174 12.9062C15.2945 11.2483 13.1836 10.2449 10.2976 10.2449C4.65292 10.2449 0 15.2615 0 21.7606C0 28.2597 4.65292 33.2741 10.2976 33.2741C13.1836 33.2741 15.2945 32.2708 16.7174 30.6129V32.6623H23.1796V0H16.7174V12.9062ZM11.5909 27.081C8.61776 27.081 6.46441 25.0316 6.46441 21.7606C6.46441 18.4897 8.61776 16.4403 11.5909 16.4403C14.564 16.4403 16.7174 18.4897 16.7174 21.7606C16.7174 25.0316 14.564 27.081 11.5909 27.081Z" fill="#1759FF"/>
<path d="M43.3502 12.9061C41.9274 11.2482 39.8164 10.2449 36.9304 10.2449C31.2857 10.2449 26.6328 15.2615 26.6328 21.7584C26.6328 28.2554 31.2857 33.2719 36.9304 33.2719C39.8164 33.2719 41.9274 32.2686 43.3502 30.6107V32.6601H49.8124V10.2449H43.3502V12.9061ZM38.2237 27.0809C35.2506 27.0809 33.0972 25.0315 33.0972 21.7606C33.0972 18.4896 35.2506 16.4402 38.2237 16.4402C41.1968 16.4402 43.3502 18.4896 43.3502 21.7606C43.3502 25.0315 41.1968 27.0809 38.2237 27.0809Z" fill="#1759FF"/>
<path d="M81.0428 14.6989C83.1536 14.6989 84.9206 12.9105 84.9206 10.7734C84.9206 8.63625 83.1536 6.84781 81.0428 6.84781C78.9321 6.84781 77.1651 8.63625 77.1651 10.7734C77.1651 12.9105 78.9321 14.6989 81.0428 14.6989Z" fill="#1759FF"/>
<path d="M84.2728 19.3262H77.8104V32.6645H84.2728V19.3262Z" fill="#1759FF"/>
<path d="M67.2666 10.7841L60.5983 18.7421V0H54.136V40H60.5983V27.2927L62.5246 24.9952L67.0625 32.5939H74.1175L66.6425 20.077L74.4277 10.7841H67.2666Z" fill="#1759FF"/>
</g>
<defs>
<clipPath id="clip0_2_39">
<rect width="85" height="40" fill="white"/>
</clipPath>
</defs>
</svg>
