<svg width="100" height="47" viewBox="0 0 100 47" fill="none" xmlns="http://www.w3.org/2000/svg">
<g clip-path="url(#clip0_4_174)">
<path d="M19.6675 14.992C17.9936 13.0661 15.5101 11.9007 12.1148 11.9007C5.47402 11.9007 0 17.728 0 25.2775C0 32.8269 5.47402 38.6518 12.1148 38.6518C15.5101 38.6518 17.9936 37.4863 19.6675 35.5604V37.9411H27.2701V0H19.6675V14.992ZM13.6364 31.4577C10.1385 31.4577 7.60518 29.0771 7.60518 25.2775C7.60518 21.4779 10.1385 19.0973 13.6364 19.0973C17.1341 19.0973 19.6675 21.4779 19.6675 25.2775C19.6675 29.0771 17.1341 31.4577 13.6364 31.4577Z" fill="#00133B"/>
<path d="M51.0002 14.9918C49.3263 13.0659 46.8428 11.9005 43.4475 11.9005C36.8067 11.9005 31.3327 17.7278 31.3327 25.2748C31.3327 32.8217 36.8067 38.6491 43.4475 38.6491C46.8428 38.6491 49.3263 37.4836 51.0002 35.5577V37.9384H58.6028V11.9005H51.0002V14.9918ZM44.9691 31.4574C41.4712 31.4574 38.9379 29.0768 38.9379 25.2773C38.9379 21.4777 41.4712 19.097 44.9691 19.097C48.4668 19.097 51.0002 21.4777 51.0002 25.2773C51.0002 29.0768 48.4668 31.4574 44.9691 31.4574Z" fill="#00133B"/>
<path d="M95.3445 17.0745C97.8277 17.0745 99.9066 14.997 99.9066 12.5145C99.9066 10.032 97.8277 7.95453 95.3445 7.95453C92.8613 7.95453 90.7825 10.032 90.7825 12.5145C90.7825 14.997 92.8613 17.0745 95.3445 17.0745Z" fill="#00133B"/>
<path d="M99.1445 22.4496H91.5416V37.9436H99.1445V22.4496Z" fill="#00133B"/>
<path d="M79.1372 12.5269L71.2922 21.7712V0H63.6895V46.4646H71.2922V31.7037L73.5584 29.0348L78.8971 37.8616H87.1971L78.4029 23.3218L87.562 12.5269H79.1372Z" fill="#00133B"/>
</g>
<defs>
<clipPath id="clip0_4_174">
<rect width="100" height="46.4646" fill="white"/>
</clipPath>
</defs>
</svg>
