<svg width="36" height="36" viewBox="0 0 36 36" fill="none" xmlns="http://www.w3.org/2000/svg">
<circle cx="18" cy="18" r="18" fill="#FFCB05"/>
<path fill-rule="evenodd" clip-rule="evenodd" d="M21.8143 5.69274C22.8568 5.67147 24.2911 5.68449 25.5253 5.79688V9.33169C24.3432 9.23264 23.1529 9.23486 22.3807 9.22121C21.6082 9.20692 21.2504 9.21962 20.9229 9.22565C20.5953 9.232 20.2979 9.23201 19.8374 9.25423C19.2442 9.2798 18.6528 9.33905 18.0663 9.4317C17.3784 9.54313 16.626 9.72219 16.0415 9.91332C15.4566 10.1041 15.0397 10.307 14.6746 10.5429C12.7836 11.8649 12.4484 13.3745 13.3627 14.8282C13.7456 15.5133 14.3508 15.9343 14.9357 16.1854C15.5822 16.4664 16.1346 16.6702 16.7077 16.9204C17.0524 17.0629 17.4005 17.1974 17.7515 17.3236C18.6381 17.6554 20.1475 18.1173 21.5061 18.7313C22.1597 19.0306 22.7873 19.3836 23.3825 19.7866C25.8011 21.4585 26.0685 22.822 26.1385 24.4142C26.1124 25.5813 25.8395 26.7737 24.7172 28.0189C24.4123 28.3454 24.0694 28.6343 23.6957 28.8795C23.3136 29.1304 22.9008 29.3313 22.4675 29.4774C22.0108 29.6323 21.4969 29.744 20.879 29.8006C19.6851 29.9034 17.7865 29.8234 16.0465 29.4707C15.1945 29.2878 14.45 29.0237 13.7405 28.7427C13.0304 28.4611 12.3549 28.1649 11.8362 27.8623C11.3172 27.5585 10.9696 27.2372 10.6528 26.8883L12.3053 23.8253C12.8828 24.245 13.5011 24.6072 14.1336 24.9209C14.7655 25.2339 15.4156 25.4933 16.1375 25.7244C16.8594 25.9562 17.6535 26.161 18.3201 26.2813C18.987 26.401 19.5267 26.4356 19.9707 26.4257C20.4146 26.4165 20.7629 26.3619 21.0672 26.2727C21.3426 26.1944 21.6044 26.0748 21.8439 25.9181C22.8434 25.1634 22.7439 24.3904 22.3234 23.4745C22.191 23.2318 22.017 23.0142 21.8092 22.8316C21.1114 22.168 19.6317 21.7731 18.476 21.287C18.1045 21.1296 17.74 20.9508 17.1959 20.7178C16.6521 20.4854 15.9279 20.1974 15.4467 20.006C14.9653 19.8142 14.7267 19.7184 14.2745 19.5101C13.8229 19.3018 13.1573 18.9799 12.6017 18.6427C12.107 18.3441 11.6447 17.9949 11.2224 17.6008C9.41409 15.8937 9.40837 14.5961 9.50695 12.9624C9.65897 11.6944 10.1074 10.2892 11.2739 8.96754C12.0031 8.14496 12.9292 7.48872 13.8499 7.02362C14.8899 6.47184 16.1935 6.1988 17.547 6.03054C18.2641 5.94069 18.9613 5.88609 19.4618 5.84386C19.9621 5.80195 20.2658 5.77211 20.6004 5.7483C21.0044 5.71829 21.4092 5.69976 21.8143 5.69274Z" fill="#DA0001"/>
</svg>
